
<svg width="38" height="49" viewBox="0 0 38 49" fill="none" xmlns="http://www.w3.org/2000/svg">
<path d="M35.0515 25.9176C34.0736 24.6327 32.8501 23.5604 31.3963 22.7119C32.2888 21.9247 33.0387 21.041 33.6373 20.0653C34.8476 18.0985 35.4594 15.9628 35.4594 13.7219C35.4594 11.3384 34.7774 9.03392 33.4355 6.87632C32.0783 4.69022 30.175 3.0479 27.7828 1.99979C25.4783 0.991161 22.5708 0.5 18.8959 0.5H2.33672C1.26888 0.5 0.402771 1.36611 0.402771 2.43614V46.5661C0.402771 47.6361 1.26888 48.5 2.33672 48.5H19.1656C22.1213 48.5 24.6758 48.2347 26.7588 47.7041C28.934 47.1537 30.789 46.3073 32.2756 45.1934C33.8017 44.0489 35.0822 42.4328 36.0887 40.3915C37.0885 38.3545 37.5972 36.1289 37.5972 33.7718C37.5972 30.7831 36.7399 28.1431 35.0515 25.9176ZM7.61231 7.64156C7.61231 6.73599 8.34466 6.00144 9.25024 6.00144H16.7207C19.5997 6.00144 21.6214 6.19878 22.8975 6.60004C24.3797 7.06489 25.5375 7.95073 26.3422 9.22687C27.1009 10.4328 27.4868 11.8274 27.4868 13.3776C27.4868 15.0353 27.0592 16.4605 26.2106 17.6117C25.3599 18.7694 24.1144 19.5983 22.516 20.0741C21.4109 20.4117 19.7115 20.5762 17.3325 20.5762H9.25024C8.34466 20.5762 7.61231 19.8416 7.61231 18.9361V7.64156ZM28.1073 38.8675C27.4802 40.0253 26.6514 40.9309 25.6449 41.5558C24.7065 42.139 23.5509 42.5578 22.2112 42.7968C21.4635 42.935 20.2992 43.0008 18.5582 43.0008H9.25024C8.34466 43.0008 7.61231 42.2662 7.61231 41.3606V28.5093C7.61231 27.6037 8.34466 26.867 9.25024 26.867H17.8938C20.4724 26.867 22.4283 27.0994 23.8754 27.5752C25.4827 28.1037 26.7632 29.0443 27.6797 30.3643C28.5853 31.669 29.0436 33.2038 29.0436 34.9317C29.0436 36.3964 28.73 37.7186 28.1073 38.8675Z" fill="#d15df7"/>
</svg>
